<svg width="180" height="180" viewBox="0 0 180 180" fill="none" xmlns="http://www.w3.org/2000/svg">
  <rect width="180" height="180" rx="40" fill="#FFFBEB" />
  <path
    d="M54 56 C72 34, 112 32, 134 56 C156 79, 150 116, 120 132 C88 148, 54 132, 42 102"
    stroke="#B45309"
    stroke-width="32"
    stroke-linecap="round"
    fill="none"
    opacity="0.25"
  />
  <path
    d="M54 56 C72 34, 112 32, 134 56 C156 79, 150 116, 120 132 C88 148, 54 132, 42 102"
    stroke="#FBBF24"
    stroke-width="28"
    stroke-linecap="round"
    fill="none"
  />
  <path
    d="M60 64 C74 48, 110 46, 126 62 C142 78, 140 103, 118 116 C92 130, 62 120, 54 96"
    stroke="#FDE047"
    stroke-width="10"
    stroke-linecap="round"
    fill="none"
    opacity="0.95"
  />
  <circle cx="54" cy="56" r="8" fill="#78350F" />
  <circle cx="120" cy="132" r="8" fill="#78350F" />
</svg>
